<svg width="14" height="14" viewBox="0 0 14 14" fill="none" xmlns="http://www.w3.org/2000/svg">
<path d="M6.99992 7C6.08325 7 5.29853 6.67361 4.64575 6.02083C3.99297 5.36806 3.66659 4.58333 3.66659 3.66667C3.66659 2.75 3.99297 1.96528 4.64575 1.3125C5.29853 0.659723 6.08325 0.333334 6.99992 0.333334C7.91658 0.333334 8.70131 0.659723 9.35408 1.3125C10.0069 1.96528 10.3333 2.75 10.3333 3.66667C10.3333 4.58333 10.0069 5.36806 9.35408 6.02083C8.70131 6.67361 7.91658 7 6.99992 7ZM0.333252 13.6667V11.3333C0.333252 10.8611 0.454919 10.4269 0.698252 10.0308C0.94103 9.63528 1.26381 9.33333 1.66659 9.125C2.5277 8.69444 3.4027 8.37139 4.29159 8.15583C5.18047 7.94083 6.08325 7.83333 6.99992 7.83333C7.91658 7.83333 8.81936 7.94083 9.70825 8.15583C10.5971 8.37139 11.4721 8.69444 12.3333 9.125C12.736 9.33333 13.0588 9.63528 13.3016 10.0308C13.5449 10.4269 13.6666 10.8611 13.6666 11.3333V13.6667H0.333252ZM1.99992 12H6.99992H11.9999V11.3333C11.9999 11.1806 11.9619 11.0417 11.8858 10.9167C11.8091 10.7917 11.7083 10.6944 11.5833 10.625C10.8333 10.25 10.0763 9.96861 9.31242 9.78083C8.54853 9.59361 7.7777 9.5 6.99992 9.5C6.22214 9.5 5.45131 9.59361 4.68742 9.78083C3.92353 9.96861 3.16659 10.25 2.41659 10.625C2.29159 10.6944 2.19103 10.7917 2.11492 10.9167C2.03825 11.0417 1.99992 11.1806 1.99992 11.3333V12ZM6.99992 5.33333C7.45825 5.33333 7.85075 5.17 8.17742 4.84333C8.50353 4.51722 8.66658 4.125 8.66658 3.66667C8.66658 3.20833 8.50353 2.81611 8.17742 2.49C7.85075 2.16333 7.45825 2 6.99992 2C6.54158 2 6.14936 2.16333 5.82325 2.49C5.49659 2.81611 5.33325 3.20833 5.33325 3.66667C5.33325 4.125 5.49659 4.51722 5.82325 4.84333C6.14936 5.17 6.54158 5.33333 6.99992 5.33333Z" fill="#1E201E"/>
</svg>
