<svg width="19" height="6" viewBox="0 0 19 6" fill="none" xmlns="http://www.w3.org/2000/svg">
<path fill-rule="evenodd" clip-rule="evenodd" d="M2.1443 0.620605L0 5.57624H2.56703L2.88527 4.78611H3.61269L3.93093 5.57624H6.75651V4.97319L7.00828 5.57624H8.4699L8.72167 4.96044V5.57624H14.5981L15.3127 4.80663L15.9817 5.57624L19 5.58261L16.8489 3.11226L19 0.620605H16.0285L15.333 1.376L14.685 0.620605H8.29217L7.74322 1.8997L7.18139 0.620605H4.61972V1.20314L4.33475 0.620605H2.1443ZM10.9196 1.32431H14.2941L15.3262 2.48861L16.3916 1.32431H17.4237L15.8555 3.11156L17.4237 4.87821H16.3448L15.3127 3.70039L14.2419 4.87821H10.9196V1.32431ZM11.7529 2.70973V2.06058V2.05996H13.8585L14.7773 3.09811L13.8178 4.14193H11.7529V3.43325H13.5939V2.70973H11.7529ZM2.64098 1.32431H3.89227L5.31459 4.68475V1.32431H6.68533L7.7839 3.73373L8.79637 1.32431H10.1603V4.88031H9.33036L9.32359 2.09385L8.11368 4.88031H7.3713L6.15461 2.09385V4.88031H4.44733L4.12366 4.0831H2.37499L2.05199 4.87961H1.13725L2.64098 1.32431ZM2.67359 3.34613L3.2497 1.92597L3.82515 3.34613H2.67359Z" fill="white"/>
</svg>
