<svg width="17" height="8" viewBox="0 0 17 8" fill="none" xmlns="http://www.w3.org/2000/svg">
<path fill-rule="evenodd" clip-rule="evenodd" d="M2.48469 1.95514C2.79358 1.98158 3.10246 1.79654 3.29551 1.56194C3.48535 1.32074 3.61083 0.996924 3.57866 0.666504C3.30517 0.679721 2.96732 0.851539 2.77427 1.09275C2.59731 1.30091 2.44608 1.63794 2.48469 1.95514ZM6.15914 6.21095V1.0597H8.0414C9.0131 1.0597 9.692 1.74697 9.692 2.75145C9.692 3.75593 9.00023 4.44981 8.01566 4.44981H6.93778V6.21095H6.15914ZM3.57543 2.01794C3.3033 2.00185 3.05501 2.10198 2.85445 2.18285C2.72538 2.23489 2.61609 2.27897 2.53294 2.27897C2.43963 2.27897 2.32583 2.23254 2.19805 2.18041C2.03062 2.1121 1.8392 2.03401 1.63846 2.03776C1.17836 2.04437 0.750423 2.31201 0.515542 2.73825C0.0329111 3.59073 0.390058 4.85294 0.856602 5.54682C1.08505 5.89046 1.35854 6.26713 1.7189 6.25392C1.87744 6.24777 1.99149 6.19808 2.10951 6.14665C2.24539 6.08744 2.38654 6.02593 2.60694 6.02593C2.81971 6.02593 2.95469 6.08583 3.08426 6.14334C3.20746 6.19802 3.32578 6.25053 3.50142 6.24731C3.87466 6.2407 4.10954 5.90367 4.33798 5.56004C4.58452 5.19122 4.69285 4.83127 4.70929 4.77665L4.71122 4.77033C4.71082 4.76993 4.7078 4.76851 4.70248 4.766L4.70241 4.76597L4.7024 4.76597C4.61999 4.72722 3.99009 4.43109 3.98405 3.63699C3.97799 2.97046 4.48367 2.63276 4.56327 2.57959L4.56328 2.57959L4.56329 2.57959C4.56813 2.57636 4.57139 2.57418 4.57286 2.57304C4.25111 2.08402 3.74917 2.03115 3.57543 2.01794ZM11.1142 6.25058C11.6032 6.25058 12.0569 5.99616 12.2628 5.59305H12.2789V6.21093H12.9997V3.64687C12.9997 2.90343 12.4205 2.42432 11.5292 2.42432C10.7023 2.42432 10.091 2.91004 10.0685 3.57749H10.7699C10.8278 3.26028 11.1142 3.05212 11.5067 3.05212C11.9829 3.05212 12.25 3.28011 12.25 3.69974V3.9839L11.2783 4.04338C10.3741 4.09955 9.88508 4.47953 9.88508 5.14037C9.88508 5.80782 10.3902 6.25058 11.1142 6.25058ZM11.3233 5.63931C10.9082 5.63931 10.6444 5.43445 10.6444 5.12056C10.6444 4.79674 10.8986 4.60841 11.3844 4.57867L12.2499 4.5225V4.81327C12.2499 5.29568 11.851 5.63931 11.3233 5.63931ZM15.3903 6.4125C15.0782 7.31455 14.721 7.61193 13.9617 7.61193C13.9038 7.61193 13.7107 7.60532 13.6657 7.5921V6.97422C13.7139 6.98083 13.833 6.98743 13.8941 6.98743C14.2384 6.98743 14.4315 6.83874 14.5505 6.45215L14.6213 6.22416L13.3021 2.4739H14.1161L15.0331 5.51707H15.0492L15.9662 2.4739H16.7577L15.3903 6.4125ZM6.93771 1.73377H7.83541C8.51109 1.73377 8.89719 2.10384 8.89719 2.75477C8.89719 3.40569 8.51109 3.77907 7.83219 3.77907H6.93771V1.73377Z" fill="black"/>
</svg>
