<svg width="21" height="10" viewBox="0 0 21 10" fill="none" xmlns="http://www.w3.org/2000/svg">
<path d="M7.34998 9.03353L20.0166 5.2002V7.48353C20.0166 8.33957 19.3227 9.03353 18.4666 9.03353H7.34998Z" fill="#FD6020"/>
<path fill-rule="evenodd" clip-rule="evenodd" d="M17.5958 0.0738931C18.2927 0.0738931 18.6759 0.396255 18.6759 1.00516C18.7108 1.47079 18.3972 1.86479 17.9791 1.93643L18.9198 3.26169H18.1881L17.3867 1.97225H17.317V3.26169H16.7247V0.0738931H17.5958ZM17.3171 1.54244H17.4913C17.8745 1.54244 18.0488 1.36335 18.0488 1.04099C18.0488 0.754448 17.8745 0.575358 17.4913 0.575358H17.3171V1.54244ZM14.669 3.26169H16.3414V2.72442H15.2613V1.86479H16.3066V1.32752H15.2613V0.611163H16.3414V0.0738931H14.669V3.26169ZM12.9268 2.22297L12.1254 0.0738931H11.4982L12.7874 3.33333H13.101L14.3902 0.0738931H13.763L12.9268 2.22297ZM5.85366 1.68571C5.85366 2.58116 6.55052 3.33333 7.4216 3.33333C7.70035 3.33333 7.94425 3.2617 8.18815 3.15424V2.43789C8.01393 2.65279 7.77003 2.79606 7.49129 2.79606C6.9338 2.79606 6.48084 2.36625 6.48084 1.79316V1.72153C6.44599 1.14844 6.89895 0.646987 7.45644 0.611169C7.73519 0.611169 8.01393 0.754441 8.18815 0.969349V0.252989C7.97909 0.109718 7.70035 0.0738996 7.45644 0.0738996C6.55052 0.00226371 5.85366 0.754441 5.85366 1.68571ZM4.77352 1.29171C4.42509 1.14844 4.32056 1.0768 4.32056 0.897712C4.3554 0.682804 4.52962 0.503714 4.73867 0.539532C4.91289 0.539532 5.08711 0.646986 5.22648 0.790258L5.54007 0.360442C5.29616 0.145534 4.98258 0.00226251 4.66899 0.00226251C4.18118 -0.0335555 3.76307 0.360442 3.72822 0.861894V0.897712C3.72822 1.32753 3.90244 1.57825 4.45993 1.75734C4.5993 1.79316 4.73867 1.8648 4.87805 1.93643C4.98258 2.00807 5.05226 2.11552 5.05226 2.2588C5.05226 2.50952 4.8432 2.72443 4.63415 2.72443H4.5993C4.32056 2.72443 4.07665 2.54534 3.97213 2.29461L3.58885 2.68861C3.79791 3.08261 4.21603 3.29752 4.63415 3.29752C5.19164 3.33333 5.6446 2.90352 5.67944 2.33043V2.22298C5.6446 1.79316 5.47038 1.57825 4.77352 1.29171ZM2.75261 3.26169H3.34495V0.0738931H2.75261V3.26169ZM0 0.0739083H0.871079H1.04529C1.88153 0.109726 2.54355 0.826086 2.50871 1.68572C2.50871 2.15135 2.29965 2.58117 1.95122 2.90353C1.63763 3.15425 1.25435 3.29753 0.871079 3.26171H0V0.0739083ZM0.766554 2.72443C1.0453 2.76025 1.35889 2.65279 1.56795 2.4737C1.77701 2.25879 1.88154 1.97225 1.88154 1.64989C1.88154 1.36334 1.77701 1.0768 1.56795 0.861892C1.35889 0.682803 1.0453 0.575349 0.766554 0.611167H0.592339V2.72443H0.766554Z" fill="black"/>
<path fill-rule="evenodd" clip-rule="evenodd" d="M9.96509 0C9.09401 0 8.3623 0.716359 8.3623 1.64763C8.3623 2.54308 9.05917 3.29525 9.96509 3.33107C10.871 3.36689 11.5679 2.61471 11.6027 1.68344C11.5679 0.752177 10.871 0 9.96509 0V0Z" fill="#FD6020"/>
</svg>
