<svg width="116" height="25" viewBox="0 0 116 25" fill="none" xmlns="http://www.w3.org/2000/svg">
<path d="M22.2946 6.68605V23.9999H27.1398V0.282284H20.1261L13.5191 16.8169L7.14918 0.282284H0V23.9999H4.84518V6.61828L11.7572 23.9999H15.2132L22.2946 6.68605Z" fill="black"/>
<path d="M44.2183 23.9999V19.9002H33.8503V13.8352H44.2183V9.73546H33.8503V4.38205H44.2183V0.282284H29.0051V23.9999H44.2183Z" fill="black"/>
<path d="M45.2713 23.9999H51.8784C58.3838 23.9999 65.1941 20.815 65.1941 12.0395C65.1941 10.0226 63.4016 8.30391 62.7394 6.85479C60.5871 2.14482 56.8731 0.282284 52.1833 0.282284H45.2713V23.9999ZM50.1165 4.38205H51.6073C56.9268 4.38205 60.0101 7.12652 60.0101 12.3444C60.0101 17.935 56.2153 19.9002 50.6586 19.9002H50.1165V4.38205Z" fill="black"/>
<path d="M67.0765 19.7646V14.2079L75.005 0.282284H69.3466L64.8741 8.82064H64.8064L60.7066 0.282284H54.6755L62.2313 14.0724V23.9999L75.2934 24V19.7647L67.0765 19.7646Z" fill="#1C7C79"/>
<path fill-rule="evenodd" clip-rule="evenodd" d="M83.3074 20.2955C87.4749 20.2955 90.5243 16.7718 90.5243 12.2654C90.5243 7.75906 87.4749 4.23529 83.3074 4.23529C81.7856 4.23529 80.4149 4.69758 79.2856 5.50141V0.632327C78.1114 1.00235 77.0348 1.6262 77.0348 1.6262C78.8588 0.591623 80.9936 0 83.3074 0C90.321 0 95.7083 5.48894 95.7083 12.2654C95.7083 19.0419 90.321 24.5308 83.3074 24.5308C81.8895 24.5308 80.5387 24.3086 79.2856 23.8985V19.0294C80.4149 19.8332 81.7856 20.2955 83.3074 20.2955ZM71.0978 14.637H74.5421V7.82667C74.06 8.55602 73.4786 9.47481 72.8836 10.4152C72.2078 11.4833 71.5143 12.5793 70.9286 13.4571C70.6908 13.8102 70.1035 14.637 70.1035 14.637C70.1035 14.637 70.8453 14.637 71.0978 14.637ZM110.822 0.406587H115.667V12.9431C115.667 20.3972 112.821 24.5308 106.044 24.5308C99.4033 24.5308 96.5572 20.3972 96.5572 12.9431V0.406587H101.402V13.5868C101.402 18.1271 103.232 20.2955 106.112 20.2955C108.992 20.2955 110.822 18.1271 110.822 13.5868V0.406587Z" fill="#1C7C79"/>
</svg>
