<svg width="17" height="11" viewBox="0 0 17 11" fill="none" xmlns="http://www.w3.org/2000/svg">
<path fill-rule="evenodd" clip-rule="evenodd" d="M8.71428 9.69762C7.83668 10.4339 6.69828 10.8784 5.45433 10.8784C2.67869 10.8784 0.428589 8.66541 0.428589 5.93554C0.428589 3.20567 2.67869 0.992676 5.45433 0.992676C6.69829 0.992676 7.83669 1.43717 8.7143 2.17347C9.5919 1.43718 10.7303 0.992691 11.9742 0.992691C14.7499 0.992691 17 3.20569 17 5.93555C17 8.66542 14.7499 10.8784 11.9742 10.8784C10.7303 10.8784 9.59188 10.4339 8.71428 9.69762Z" fill="#ED0006"/>
<path fill-rule="evenodd" clip-rule="evenodd" d="M8.71423 9.69762C9.79484 8.79101 10.48 7.44197 10.48 5.93554C10.48 4.4291 9.79484 3.08007 8.71423 2.17346C9.59183 1.43716 10.7302 0.992676 11.9742 0.992676C14.7498 0.992676 16.9999 3.20567 16.9999 5.93554C16.9999 8.66541 14.7498 10.8784 11.9742 10.8784C10.7302 10.8784 9.59183 10.4339 8.71423 9.69762Z" fill="#F9A000"/>
<path fill-rule="evenodd" clip-rule="evenodd" d="M8.71426 9.69746C9.79485 8.79084 10.48 7.44182 10.48 5.9354C10.48 4.42898 9.79485 3.07995 8.71426 2.17334C7.63368 3.07995 6.94849 4.42898 6.94849 5.9354C6.94849 7.44182 7.63368 8.79084 8.71426 9.69746Z" fill="#FF5E00"/>
</svg>
