<svg width="19" height="8" viewBox="0 0 19 8" fill="none" xmlns="http://www.w3.org/2000/svg">
<path fill-rule="evenodd" clip-rule="evenodd" d="M0.662393 5.44833L0.662395 5.44833L0.662395 5.44832L0.662397 5.44831C0.679092 5.35206 0.695269 5.2588 0.713865 5.16554C0.792627 4.74366 0.871935 4.32234 0.951244 3.90102C1.03055 3.4797 1.10986 3.05838 1.18862 2.6365C1.19956 2.58307 1.21488 2.54745 1.26739 2.53855C1.67651 2.47621 2.08782 2.43168 2.49694 2.53632C2.85356 2.62537 3.10297 2.88139 3.14454 3.18194C3.22986 3.7808 2.88638 4.25945 2.37661 4.43087C2.10751 4.51992 1.83403 4.54218 1.55618 4.51547C1.49054 4.50879 1.47085 4.5266 1.45991 4.59116C1.40084 4.91842 1.33958 5.24345 1.27614 5.56849C1.27176 5.5952 1.24769 5.6375 1.23238 5.6375C1.08369 5.64083 0.93745 5.64043 0.785444 5.64001H0.785442H0.785441L0.62854 5.63973C0.640571 5.57415 0.651589 5.51062 0.662391 5.44835L0.662393 5.44833ZM1.69388 3.98787H1.69388C1.77946 3.99024 1.86027 3.99247 1.93906 3.98339C2.1666 3.9589 2.34819 3.85427 2.45101 3.63387C2.56697 3.38453 2.48383 3.1196 2.26505 3.04168C2.10971 2.98602 1.95 2.99716 1.79029 3.01942C1.7706 3.02164 1.74435 3.05281 1.73997 3.07285L1.64701 3.56992L1.56932 3.98562C1.61209 3.98562 1.65351 3.98676 1.69387 3.98787L1.69388 3.98787ZM4.50756 5.21213C4.47295 5.24876 4.44052 5.28562 4.40883 5.32165C4.34037 5.39945 4.27535 5.47336 4.19908 5.53271C3.96936 5.71304 3.70682 5.75311 3.44209 5.62844C3.17955 5.506 3.07235 5.26779 3.06141 4.98728C3.03735 4.39732 3.24081 3.90977 3.7287 3.57137C4.03499 3.35765 4.38723 3.29309 4.7526 3.31313C4.87346 3.32036 4.99339 3.3417 5.1136 3.36309C5.17836 3.37461 5.2432 3.38615 5.30831 3.3955C5.38269 3.40663 5.39363 3.44893 5.38051 3.51349C5.36296 3.60655 5.34521 3.69951 5.32748 3.79241L5.32747 3.79244L5.32746 3.79246L5.32746 3.79249L5.32745 3.79252L5.32745 3.79255L5.32745 3.79255L5.32744 3.79256L5.32744 3.79257L5.32744 3.79258L5.32744 3.79259C5.26118 4.13968 5.19507 4.48598 5.13984 4.83366C5.10818 5.03268 5.09555 5.23654 5.08304 5.43836L5.08303 5.43842V5.43843L5.08303 5.43844L5.0764 5.54384C5.07202 5.61508 5.05452 5.64402 4.98232 5.6418C4.84668 5.63735 4.71103 5.63735 4.57539 5.6418C4.50538 5.64402 4.48131 5.61731 4.48787 5.5483C4.49412 5.47202 4.49814 5.39348 4.50231 5.31186L4.50756 5.21213ZM4.66072 3.83635C4.4485 3.77624 4.27129 3.81854 4.12251 3.94543C3.84247 4.18587 3.71558 4.49755 3.73965 4.86933C3.74621 4.98287 3.78997 5.09196 3.90811 5.14094C4.02625 5.18991 4.13345 5.15429 4.22534 5.07415C4.28004 5.02517 4.33255 4.96951 4.37193 4.90718C4.52624 4.6675 4.5684 4.39715 4.61121 4.12254C4.62607 4.02729 4.641 3.93152 4.66072 3.83635ZM7.76084 5.08314C7.88117 5.47497 8.21153 5.69314 8.79131 5.69314C9.18949 5.68201 9.58549 5.4527 9.83271 4.98074C9.96398 4.72694 10.0121 4.45534 9.99461 4.17038C9.9793 3.89655 9.87209 3.66501 9.65331 3.50027C9.42359 3.32662 9.16105 3.291 8.88101 3.32217C7.94462 3.42903 7.56175 4.43753 7.76084 5.08314ZM8.38388 4.75623C8.38412 4.74485 8.38436 4.73356 8.38436 4.72251C8.39093 4.46649 8.45218 4.22827 8.60314 4.01678C8.67097 3.92328 8.75629 3.85204 8.87006 3.82532C9.10197 3.77189 9.29231 3.90769 9.31419 4.16371C9.34044 4.47762 9.26606 4.76703 9.07134 5.0186C8.99695 5.1121 8.90288 5.17666 8.78255 5.18779C8.56595 5.20783 8.40186 5.05867 8.38436 4.82491C8.3829 4.80257 8.38339 4.77923 8.38388 4.75623ZM10.5153 3.36881H11.071C11.0623 3.48903 11.0535 3.6048 11.0426 3.72279C11.0629 3.70359 11.0825 3.68462 11.1017 3.66602C11.1426 3.62639 11.1818 3.58844 11.222 3.55359C11.4386 3.36213 11.6858 3.27754 11.9724 3.32429C12.2087 3.36436 12.3728 3.54023 12.3991 3.78735C12.4276 4.04448 12.3802 4.29389 12.3329 4.54276L12.3329 4.54277L12.3225 4.59771C12.3033 4.69887 12.2843 4.80004 12.2653 4.90113L12.2653 4.9012L12.2653 4.90132C12.2237 5.12275 12.1823 5.34385 12.1387 5.56391C12.1321 5.59285 12.0993 5.63515 12.0774 5.63737C11.8893 5.64183 11.7011 5.6396 11.513 5.63737C11.5067 5.63737 11.5004 5.6339 11.4908 5.62863C11.4871 5.62659 11.4829 5.62428 11.478 5.62179C11.513 5.43701 11.548 5.25001 11.5808 5.063C11.6311 4.77581 11.6793 4.49085 11.723 4.20366C11.7318 4.15468 11.7274 4.10348 11.7208 4.0545C11.7033 3.88308 11.5786 3.80516 11.4167 3.85636C11.2592 3.90757 11.1651 4.03224 11.0885 4.17027C10.9748 4.37286 10.9354 4.59771 10.896 4.82256L10.8666 4.98944L10.8666 4.98946L10.8666 4.98947L10.8666 4.98949C10.8332 5.18026 10.7998 5.3703 10.7626 5.56168C10.756 5.59062 10.7232 5.63515 10.7013 5.63737C10.5479 5.6427 10.3931 5.64236 10.228 5.64201L10.0996 5.64183C10.244 4.87599 10.3797 4.12574 10.5153 3.36881ZM13.6702 5.17452C13.4383 5.14558 13.2829 4.98083 13.2982 4.7493C13.3466 4.7493 13.3947 4.75005 13.4426 4.7508C13.5377 4.75228 13.6317 4.75374 13.7249 4.7493C13.9502 4.73594 14.1712 4.6981 14.3768 4.59346C14.6394 4.45989 14.7619 4.23949 14.7422 3.9523C14.7225 3.66066 14.5672 3.44916 14.2893 3.36456C13.8736 3.23767 13.4908 3.32672 13.1648 3.60945C12.7688 3.9523 12.62 4.40646 12.6769 4.92518C12.7163 5.29251 12.9132 5.55521 13.272 5.64871C13.657 5.74889 14.0355 5.69546 14.4009 5.54408C14.4271 5.53295 14.4578 5.49065 14.4556 5.46393C14.4503 5.3553 14.4395 5.24666 14.4286 5.13803L14.4206 5.05653C14.4134 5.05653 14.4081 5.05615 14.404 5.05586C14.3981 5.05545 14.3947 5.05521 14.3921 5.05653L14.3921 5.05653L14.3921 5.05654C14.368 5.06544 14.344 5.07434 14.3221 5.08324C14.1121 5.16561 13.8955 5.20123 13.6702 5.17452ZM14.0093 4.18834C13.8758 4.25958 13.5301 4.30188 13.3617 4.26626C13.3967 3.97016 13.7052 3.73863 13.9655 3.80319C14.053 3.82546 14.1165 3.87221 14.1318 3.96794C14.1471 4.06144 14.1012 4.13936 14.0093 4.18834ZM15.4839 4.75818C15.4642 4.97635 15.6174 5.14332 15.8515 5.17449C16.0702 5.20121 16.2803 5.16781 16.4859 5.09212C16.5049 5.08489 16.5232 5.07765 16.5433 5.06972L16.5997 5.04759C16.604 5.09474 16.6087 5.14093 16.6134 5.18649L16.6134 5.18657L16.6134 5.18659C16.6231 5.28085 16.6325 5.37238 16.6369 5.46391C16.6391 5.49062 16.6084 5.53292 16.5844 5.54405C16.2124 5.69989 15.8296 5.75332 15.438 5.64423C15.0857 5.54628 14.9019 5.2858 14.8582 4.9296C14.8035 4.47322 14.9194 4.06136 15.2323 3.72297C15.5692 3.36009 15.9827 3.23096 16.4597 3.36454C16.7507 3.44691 16.906 3.66063 16.9235 3.96118C16.941 4.25505 16.8097 4.47545 16.5362 4.60457C16.2606 4.73369 15.9674 4.75373 15.6699 4.76041C15.6108 4.75818 15.5495 4.75818 15.4839 4.75818ZM15.5474 4.28395C15.5872 4.28142 15.6263 4.27943 15.6648 4.27746C15.7618 4.27252 15.8553 4.26775 15.9477 4.25501C16.0352 4.24388 16.1228 4.21716 16.2015 4.17931C16.2868 4.14147 16.3284 4.06132 16.3153 3.96337C16.3022 3.86986 16.2409 3.82534 16.1556 3.80308C15.8974 3.73184 15.5758 3.97227 15.5474 4.28395ZM17.0438 5.17451C17.0153 5.32589 16.9891 5.47505 16.9606 5.6398C17.0045 5.6398 17.0477 5.63989 17.0903 5.63998C17.2587 5.64033 17.4192 5.64067 17.5798 5.63534C17.5951 5.63534 17.6192 5.59304 17.6236 5.56633C17.6459 5.45514 17.6666 5.34339 17.6872 5.23168C17.7254 5.02578 17.7635 4.81999 17.8117 4.61794C17.9189 4.16824 18.1005 4.0124 18.5315 3.95451C18.549 3.95229 18.5774 3.93225 18.5818 3.91667C18.6093 3.78872 18.6339 3.65979 18.6594 3.52605C18.6725 3.45734 18.6859 3.38736 18.7 3.31558C18.2843 3.27105 18.0524 3.51594 17.8511 3.81649L17.8543 3.77283C17.8642 3.63997 17.8743 3.50476 17.8861 3.36233C17.8406 3.36233 17.796 3.36219 17.752 3.36204C17.6224 3.36163 17.4983 3.36123 17.3741 3.36456C17.3566 3.36678 17.3238 3.40685 17.3216 3.43134C17.2749 4.00355 17.1645 4.56319 17.0541 5.12246L17.0438 5.17451Z" fill="black"/>
<path fill-rule="evenodd" clip-rule="evenodd" d="M11.2513 0.68341C11.2292 0.677461 11.207 0.671513 11.1849 0.666504C11.1171 0.666504 11.0492 0.666504 10.977 0.66873C10.9524 0.673749 10.9277 0.67922 10.9029 0.684735C10.8726 0.691453 10.842 0.698238 10.8108 0.70435C10.476 0.768912 10.161 0.886904 9.85686 1.04274C9.19833 1.38113 8.60761 1.81971 8.07816 2.33843C7.72592 2.68127 7.38462 3.0397 7.05426 3.40703C6.47448 4.05265 5.97785 4.76283 5.58185 5.54202C5.37838 5.94497 5.19461 6.35683 5.11147 6.80431C5.09615 6.88668 5.12241 6.98241 5.14866 7.06478C5.1596 7.09818 5.22086 7.12266 5.26243 7.13602C5.27337 7.14048 5.30619 7.08482 5.3215 7.05365C5.32694 7.04158 5.33251 7.02921 5.33819 7.01657C5.43321 6.8054 5.56169 6.51985 5.67316 6.3308C5.90945 5.93007 6.09599 5.61994 6.36072 5.23925C6.78516 4.62702 7.28108 4.02634 7.80179 3.49649C8.29405 2.99558 8.78702 2.5477 9.40617 2.2093C9.69059 2.05569 9.98157 1.90431 10.2791 1.77964C10.7933 1.56369 11.3293 1.41675 11.8806 1.33438C11.9397 1.32548 12.0184 1.27873 12.0381 1.22975C12.0556 1.18522 12.0141 1.10063 11.9725 1.05833C11.804 0.882451 11.6071 0.748876 11.3621 0.708803C11.3252 0.703237 11.2882 0.693324 11.2513 0.68341ZM6.24259 3.72106C6.34761 3.43164 6.40011 3.1311 6.40668 2.81942C6.40376 2.78603 6.40133 2.75264 6.3989 2.71924C6.39404 2.65245 6.38918 2.58566 6.38042 2.51888C6.32135 2.00238 6.10257 1.56381 5.75471 1.18757C5.71314 1.14527 5.65625 1.11188 5.59937 1.09184C5.54249 1.06958 5.50529 1.10297 5.50967 1.16976C5.50978 1.17117 5.50988 1.17258 5.50999 1.174C5.51426 1.23057 5.51869 1.28916 5.52936 1.34564C5.54473 1.4346 5.56 1.52367 5.57527 1.6128C5.62958 1.92961 5.68401 2.24718 5.74377 2.5634C5.80284 2.88176 5.86847 3.19789 5.93848 3.51179C5.96255 3.61197 6.00193 3.71215 6.05006 3.80566C6.08726 3.8769 6.13976 3.87022 6.1879 3.80566C6.20977 3.77894 6.23165 3.75223 6.24259 3.72106Z" fill="#FC461E"/>
</svg>
