<svg width="14" height="12" viewBox="0 0 14 12" fill="none" xmlns="http://www.w3.org/2000/svg">
<path fill-rule="evenodd" clip-rule="evenodd" d="M1.6 8.16064H0.562928C0.491959 8.16064 0.431602 8.21222 0.420535 8.28226L0.00108792 10.9416C-0.00724894 10.9941 0.0333901 11.0414 0.0866183 11.0414H0.581728C0.652697 11.0414 0.713055 10.9898 0.724121 10.9197L0.837251 10.2024C0.848164 10.1322 0.908669 10.0806 0.979491 10.0806H1.30779C1.99095 10.0806 2.3852 9.75005 2.48822 9.09496C2.5346 8.80837 2.49018 8.58317 2.35594 8.42542C2.20857 8.25229 1.94709 8.16064 1.6 8.16064ZM1.71965 9.13195C1.66295 9.50409 1.37861 9.50409 1.10369 9.50409H0.947189L1.05698 8.80907C1.0635 8.7671 1.09989 8.73615 1.14235 8.73615H1.21408C1.40136 8.73615 1.57804 8.73615 1.66934 8.84289C1.72372 8.90661 1.74043 9.00121 1.71965 9.13195ZM4.70008 9.12002H4.20345C4.16113 9.12002 4.12457 9.15096 4.11805 9.193L4.09608 9.33188L4.06134 9.28156C3.95383 9.12549 3.71411 9.07335 3.47482 9.07335C2.92597 9.07335 2.45727 9.489 2.36597 10.0721C2.31853 10.3629 2.38597 10.641 2.55095 10.835C2.70232 11.0133 2.91888 11.0876 3.1765 11.0876C3.61868 11.0876 3.86394 10.8032 3.86394 10.8032L3.84176 10.9413C3.83341 10.9941 3.87404 11.0414 3.92696 11.0414H4.37433C4.44548 11.0414 4.50549 10.9898 4.51671 10.9196L4.78513 9.21981C4.79363 9.16752 4.75313 9.12002 4.70008 9.12002ZM4.0078 10.0866C3.95987 10.3703 3.73468 10.5608 3.44752 10.5608C3.30331 10.5608 3.18801 10.5145 3.11404 10.4269C3.04064 10.3399 3.01271 10.2159 3.03608 10.078C3.08085 9.79665 3.30983 9.60002 3.59264 9.60002C3.73362 9.60002 3.84829 9.64682 3.9238 9.73524C3.99945 9.82458 4.02948 9.94921 4.0078 10.0866ZM6.84598 9.11995H7.34507C7.41497 9.11995 7.45574 9.19833 7.41602 9.25566L5.75615 11.6516C5.72928 11.6904 5.685 11.7135 5.6377 11.7135H5.13924C5.06906 11.7135 5.02808 11.6345 5.06871 11.577L5.58556 10.8475L5.03587 9.23426C5.01685 9.17819 5.05826 9.11995 5.11791 9.11995H5.60829C5.67201 9.11995 5.72822 9.16177 5.74661 9.22275L6.03833 10.1971L6.72668 9.18317C6.75363 9.14359 6.7984 9.11995 6.84598 9.11995Z" fill="#253B80"/>
<path fill-rule="evenodd" clip-rule="evenodd" d="M12.257 10.9418L12.6826 8.23377C12.6891 8.19173 12.7255 8.16078 12.7678 8.16064H13.247C13.2999 8.16064 13.3406 8.20808 13.3322 8.26057L12.9125 10.9198C12.9015 10.99 12.8412 11.0416 12.7701 11.0416H12.3422C12.2893 11.0416 12.2486 10.9943 12.257 10.9418ZM8.99738 8.16079H7.96012C7.88931 8.16079 7.82896 8.21236 7.81787 8.2824L7.39843 10.9418C7.39008 10.9943 7.43071 11.0416 7.48369 11.0416H8.01591C8.06538 11.0416 8.1077 11.0055 8.11542 10.9564L8.23443 10.2025C8.24538 10.1323 8.30587 10.0808 8.37668 10.0808H8.70482C9.38812 10.0808 9.7823 9.75019 9.88539 9.0951C9.93191 8.80851 9.88721 8.58331 9.75303 8.42556C9.60573 8.25243 9.34447 8.16079 8.99738 8.16079ZM9.11703 9.13209C9.06047 9.50423 8.77612 9.50423 8.50103 9.50423H8.34468L8.45464 8.80921C8.46117 8.76724 8.49724 8.7363 8.53984 8.7363H8.61156C8.79871 8.7363 8.97556 8.73629 9.06679 8.84303C9.12124 8.90675 9.1378 9.00135 9.11703 9.13209ZM12.0972 9.12016H11.6009C11.5582 9.12016 11.522 9.1511 11.5156 9.19314L11.4937 9.33202L11.4588 9.2817C11.3513 9.12563 11.1117 9.07349 10.8724 9.07349C10.3236 9.07349 9.855 9.48914 9.7637 10.0722C9.7164 10.363 9.78356 10.6411 9.94854 10.8351C10.1002 11.0134 10.3165 11.0877 10.5741 11.0877C11.0163 11.0877 11.2615 10.8034 11.2615 10.8034L11.2394 10.9414C11.231 10.9942 11.2716 11.0415 11.3249 11.0415H11.7721C11.8429 11.0415 11.9032 10.9899 11.9143 10.9197L12.1829 9.21995C12.1911 9.16766 12.1504 9.12016 12.0972 9.12016ZM11.405 10.0868C11.3573 10.3705 11.1318 10.5609 10.8446 10.5609C10.7007 10.5609 10.5852 10.5147 10.5111 10.427C10.4377 10.34 10.4102 10.2161 10.4332 10.0781C10.4782 9.79679 10.7069 9.60016 10.9897 9.60016C11.1308 9.60016 11.2454 9.64696 11.321 9.73538C11.3969 9.82472 11.4269 9.94935 11.405 10.0868Z" fill="#179BD7"/>
<path d="M5.43805 7.20921L5.56556 6.39938L5.28156 6.39278H3.92542L4.86787 0.416896C4.87075 0.398854 4.88029 0.382033 4.89419 0.370089C4.90808 0.358145 4.92591 0.351562 4.94443 0.351562H7.23111C7.99027 0.351562 8.51413 0.509535 8.78767 0.821332C8.91588 0.967606 8.99757 1.12046 9.03708 1.28867C9.07848 1.46517 9.07925 1.67604 9.03876 1.93324L9.03581 1.95201V2.1168L9.16409 2.18945C9.27209 2.24674 9.35785 2.31232 9.42367 2.38741C9.53343 2.51247 9.60438 2.67141 9.63434 2.85986C9.66529 3.05367 9.65504 3.28429 9.60438 3.54538C9.54585 3.84573 9.45125 4.1073 9.32353 4.32135C9.20599 4.51857 9.0563 4.68211 8.87862 4.80892C8.70893 4.92934 8.50732 5.02078 8.27939 5.07931C8.05848 5.13678 7.80669 5.16583 7.53048 5.16583H7.35251C7.22528 5.16583 7.10163 5.21166 7.00465 5.29383C6.90739 5.37769 6.84297 5.49222 6.82325 5.61755L6.80984 5.69047L6.58458 7.11777L6.57433 7.17019C6.57167 7.18682 6.56704 7.1951 6.56023 7.20072C6.55412 7.20577 6.54535 7.20921 6.53679 7.20921H5.43805Z" fill="#253B80"/>
<path d="M9.28542 1.97119C9.27861 2.01483 9.27082 2.05944 9.26205 2.10527C8.96044 3.65355 7.92878 4.18841 6.6111 4.18841H5.94022C5.77909 4.18841 5.64331 4.30542 5.61818 4.46437L5.27467 6.64285L5.17741 7.26033C5.16106 7.36468 5.24155 7.45878 5.34681 7.45878H6.53678C6.67769 7.45878 6.79734 7.3564 6.81952 7.21745L6.83124 7.15696L7.05531 5.7352L7.06969 5.65723C7.09159 5.5178 7.21152 5.41541 7.35243 5.41541H7.5304C8.68324 5.41541 9.58577 4.94734 9.84956 3.59284C9.95974 3.02702 9.90268 2.55457 9.6111 2.22229C9.52289 2.12209 9.41342 2.03896 9.28542 1.97119Z" fill="#179BD7"/>
<path d="M8.96984 1.84554C8.92381 1.83213 8.87623 1.81994 8.82745 1.80897C8.77847 1.79825 8.72823 1.78874 8.67658 1.78046C8.49566 1.7512 8.29749 1.7373 8.08514 1.7373H6.29285C6.24871 1.7373 6.20682 1.7473 6.16927 1.76534C6.0866 1.80507 6.0252 1.88333 6.01032 1.97914L5.62899 4.39407L5.61804 4.46452C5.64316 4.30557 5.77895 4.18855 5.94008 4.18855H6.61096C7.92864 4.18855 8.96037 3.65345 9.26191 2.10542C9.27089 2.05959 9.27847 2.01498 9.28528 1.97134C9.209 1.93087 9.12633 1.89625 9.03735 1.86675C9.01545 1.85944 8.99279 1.85237 8.96984 1.84554Z" fill="#222D65"/>
<path d="M6.01034 1.97895C6.02521 1.88314 6.08669 1.80488 6.16929 1.76539C6.20711 1.74735 6.24879 1.73735 6.29286 1.73735H8.08522C8.29757 1.73735 8.49575 1.75125 8.67659 1.7805C8.72831 1.78879 8.77855 1.7983 8.82754 1.80902C8.87631 1.82 8.92382 1.83219 8.96992 1.84559C8.9928 1.85242 9.01547 1.85949 9.03764 1.86656C9.12662 1.89606 9.20929 1.93092 9.28557 1.97114C9.37533 1.39898 9.28487 1.00941 8.97554 0.656656C8.63448 0.268311 8.0189 0.102051 7.23125 0.102051H4.94451C4.7836 0.102051 4.6464 0.219062 4.62149 0.378255L3.66907 6.41557C3.65026 6.53501 3.7424 6.6428 3.86282 6.6428H5.27462L5.62907 4.39387L6.01034 1.97895Z" fill="#253B80"/>
</svg>
