<svg width="16" height="16" viewBox="0 0 16 16" fill="none" xmlns="http://www.w3.org/2000/svg">
<path d="M14.292 15.5L9.125 10.333C8.667 10.6803 8.17033 10.941 7.635 11.115C7.10033 11.2883 6.54133 11.375 5.958 11.375C4.44467 11.375 3.15667 10.8507 2.094 9.802C1.03133 8.75333 0.5 7.472 0.5 5.958C0.5 4.44467 1.03133 3.15667 2.094 2.094C3.15667 1.03133 4.44467 0.5 5.958 0.5C7.472 0.5 8.75333 1.03133 9.802 2.094C10.8507 3.15667 11.375 4.44467 11.375 5.958C11.375 6.54133 11.2917 7.10033 11.125 7.635C10.9583 8.17033 10.6943 8.66 10.333 9.104L15.5 14.292L14.292 15.5ZM5.958 9.625C6.972 9.625 7.83667 9.26733 8.552 8.552C9.26733 7.83667 9.625 6.972 9.625 5.958C9.625 4.93067 9.27067 4.05567 8.562 3.333C7.854 2.611 6.986 2.25 5.958 2.25C4.93067 2.25 4.05567 2.611 3.333 3.333C2.611 4.05567 2.25 4.93067 2.25 5.958C2.25 6.986 2.611 7.854 3.333 8.562C4.05567 9.27067 4.93067 9.625 5.958 9.625Z" fill="#F3F5F2"/>
</svg>
