<svg width="17" height="18" viewBox="0 0 17 18" fill="none" xmlns="http://www.w3.org/2000/svg">
<path d="M5.33325 17.3333C4.87492 17.3333 4.4827 17.1703 4.15658 16.8442C3.82992 16.5175 3.66659 16.125 3.66659 15.6667C3.66659 15.2083 3.82992 14.8158 4.15658 14.4892C4.4827 14.1631 4.87492 14 5.33325 14C5.79158 14 6.18381 14.1631 6.50992 14.4892C6.83659 14.8158 6.99992 15.2083 6.99992 15.6667C6.99992 16.125 6.83659 16.5175 6.50992 16.8442C6.18381 17.1703 5.79158 17.3333 5.33325 17.3333ZM13.6666 17.3333C13.2083 17.3333 12.816 17.1703 12.4899 16.8442C12.1633 16.5175 11.9999 16.125 11.9999 15.6667C11.9999 15.2083 12.1633 14.8158 12.4899 14.4892C12.816 14.1631 13.2083 14 13.6666 14C14.1249 14 14.5174 14.1631 14.8441 14.4892C15.1702 14.8158 15.3333 15.2083 15.3333 15.6667C15.3333 16.125 15.1702 16.5175 14.8441 16.8442C14.5174 17.1703 14.1249 17.3333 13.6666 17.3333ZM4.62492 4L6.62492 8.16667H12.4583L14.7499 4H4.62492ZM3.83325 2.33333H16.1249C16.4999 2.33333 16.7569 2.47222 16.8958 2.75C17.0346 3.02778 17.0277 3.31944 16.8749 3.625L13.9166 8.95833C13.7638 9.23611 13.5624 9.45139 13.3124 9.60417C13.0624 9.75694 12.7777 9.83333 12.4583 9.83333H6.24992L5.33325 11.5H15.3333V13.1667H5.33325C4.70825 13.1667 4.23603 12.8922 3.91659 12.3433C3.59714 11.795 3.58325 11.25 3.87492 10.7083L4.99992 8.66667L1.99992 2.33333H0.333252V0.666666H3.04159L3.83325 2.33333Z" fill="#1E201E"/>
</svg>
