<svg width="18" height="8" viewBox="0 0 18 8" fill="none" xmlns="http://www.w3.org/2000/svg">
<path fill-rule="evenodd" clip-rule="evenodd" d="M9.35794 1.42795L8.18958 1.68233V0.721346L9.35794 0.47168V1.42795ZM4.60999 1.01813L3.47422 1.26308L3.46957 5.03634C3.46957 5.73352 3.98625 6.24699 4.67516 6.24699C5.05685 6.24699 5.33614 6.17633 5.48975 6.09154V5.13527C5.34079 5.19651 4.60534 5.4132 4.60534 4.71602V3.04372H5.48975V2.04034H4.60534L4.60999 1.01813ZM1.85908 2.98249C1.61238 2.98249 1.46343 3.05315 1.46343 3.23687C1.46343 3.43746 1.71978 3.52569 2.03781 3.63516C2.55628 3.81362 3.23867 4.04851 3.24155 4.91859C3.24155 5.7618 2.57592 6.247 1.60773 6.247C1.20741 6.247 0.769864 6.16692 0.336969 5.97849V4.85735C0.727971 5.07404 1.22138 5.2342 1.60773 5.2342C1.86839 5.2342 2.05458 5.16354 2.05458 4.94685C2.05458 4.72466 1.7767 4.6231 1.44121 4.50049C0.930282 4.31376 0.285767 4.07821 0.285767 3.2934C0.285767 2.4596 0.914163 1.96027 1.85908 1.96027C2.24543 1.96027 2.62712 2.02151 3.01347 2.17696V3.28397C2.65971 3.09084 2.21285 2.98249 1.85908 2.98249ZM15.3625 1.96027C16.4657 1.96027 17.0429 2.91183 17.0429 4.11777C17.0429 4.18266 17.0398 4.29102 17.0372 4.38314L17.0372 4.38336L17.0372 4.38367L17.0372 4.38391L17.0372 4.38412C17.0353 4.45207 17.0336 4.51105 17.0336 4.53702H14.7574C14.8086 5.09288 15.2089 5.25304 15.6604 5.25304C16.1213 5.25304 16.4843 5.15412 16.8009 4.99395V5.93609C16.4843 6.1151 16.0654 6.24229 15.5115 6.24229C14.3757 6.24229 13.5844 5.52626 13.5844 4.10835C13.5844 2.91183 14.2547 1.96027 15.3625 1.96027ZM15.3579 2.91654C15.0646 2.91654 14.7434 3.13795 14.7434 3.67025H15.9444C15.9444 3.13795 15.6418 2.91654 15.3579 2.91654ZM6.93748 2.38894L6.863 2.04035H5.85757V6.1622H7.02126V3.36876C7.29589 3.00604 7.76137 3.07199 7.90567 3.1238V2.04035C7.75672 1.98382 7.21211 1.88018 6.93748 2.38894ZM8.18948 2.04034H9.35784V6.16218H8.18948V2.04034ZM11.7876 1.96027C11.3314 1.96027 11.0382 2.17696 10.8753 2.3277L10.8148 2.03564H9.79072V7.52831L10.9544 7.27865L10.9591 5.94552C11.1266 6.068 11.3733 6.24229 11.783 6.24229C12.6162 6.24229 13.3749 5.56395 13.3749 4.07066C13.3702 2.70456 12.6022 1.96027 11.7876 1.96027ZM11.5083 5.20592C11.2337 5.20592 11.0708 5.107 10.9591 4.98452L10.9544 3.23686C11.0754 3.10025 11.243 3.00603 11.5083 3.00603C11.9319 3.00603 12.2252 3.48652 12.2252 4.10362C12.2252 4.73485 11.9366 5.20592 11.5083 5.20592Z" fill="#6461FC"/>
</svg>
