<svg width="17" height="6" viewBox="0 0 17 6" fill="none" xmlns="http://www.w3.org/2000/svg">
<path fill-rule="evenodd" clip-rule="evenodd" d="M4.02517 5.83867H2.63182L1.58697 1.79475C1.53738 1.60873 1.43208 1.44428 1.27718 1.36677C0.890633 1.17199 0.464678 1.01697 0 0.938791V0.783101H2.24458C2.55437 0.783101 2.78671 1.01697 2.82543 1.28859L3.36756 4.2056L4.76023 0.783101H6.11486L4.02517 5.83867ZM6.88932 5.83867H5.57341L6.65698 0.783101H7.97289L6.88932 5.83867ZM9.67536 2.18365C9.71408 1.91136 9.94642 1.75567 10.2175 1.75567C10.6434 1.71657 11.1074 1.79476 11.4947 1.98886L11.727 0.900377C11.3398 0.744686 10.9138 0.666504 10.5273 0.666504C9.25008 0.666504 8.32073 1.36678 8.32073 2.33866C8.32073 3.07803 8.97902 3.46624 9.4437 3.70011C9.94642 3.93331 10.14 4.089 10.1013 4.3222C10.1013 4.672 9.71408 4.82769 9.32753 4.82769C8.86285 4.82769 8.39817 4.71109 7.9729 4.51631L7.74056 5.60547C8.20524 5.79958 8.70796 5.87776 9.17264 5.87776C10.6047 5.91618 11.4947 5.21658 11.4947 4.16651C11.4947 2.84415 9.67536 2.76664 9.67536 2.18365ZM16.1 5.83867L15.0552 0.783101H13.9329C13.7005 0.783101 13.4682 0.938791 13.3907 1.17199L11.4559 5.83867H12.8106L13.081 5.09998H14.7454L14.9003 5.83867H16.1ZM14.1265 2.14456L14.513 4.04992H13.4294L14.1265 2.14456Z" fill="#172B85"/>
</svg>
