<svg width="18" height="16" viewBox="0 0 18 16" fill="none" xmlns="http://www.w3.org/2000/svg">
<path d="M9.00008 15.5L7.79175 14.4167C5.61119 12.4722 3.87841 10.7811 2.59341 9.34333C1.30897 7.90611 0.666748 6.38889 0.666748 4.79167C0.666748 3.48611 1.10425 2.39583 1.97925 1.52083C2.85425 0.645834 3.94453 0.208334 5.25008 0.208334C5.98619 0.208334 6.68064 0.364445 7.33342 0.676667C7.98619 0.989445 8.54175 1.41667 9.00008 1.95833C9.45842 1.41667 10.014 0.989445 10.6667 0.676667C11.3195 0.364445 12.014 0.208334 12.7501 0.208334C14.0556 0.208334 15.1459 0.645834 16.0209 1.52083C16.8959 2.39583 17.3334 3.48611 17.3334 4.79167C17.3334 6.38889 16.6912 7.90611 15.4067 9.34333C14.1217 10.7811 12.389 12.4722 10.2084 14.4167L9.00008 15.5ZM9.00008 13.25C10.9862 11.4444 12.594 9.88889 13.8234 8.58333C15.0523 7.27778 15.6667 6.01389 15.6667 4.79167C15.6667 3.95833 15.389 3.26389 14.8334 2.70833C14.2779 2.15278 13.5834 1.875 12.7501 1.875C12.0973 1.875 11.4931 2.05889 10.9376 2.42667C10.382 2.795 10.0001 3.26389 9.79175 3.83333H8.20842C8.00008 3.26389 7.61814 2.795 7.06258 2.42667C6.50703 2.05889 5.90286 1.875 5.25008 1.875C4.41675 1.875 3.7223 2.15278 3.16675 2.70833C2.61119 3.26389 2.33341 3.95833 2.33341 4.79167C2.33341 6.01389 2.94814 7.27778 4.17758 8.58333C5.40647 9.88889 7.01397 11.4444 9.00008 13.25Z" fill="#1E201E"/>
</svg>
